<svg id="visual" viewBox="0 0 900 675" width="900" height="675" xmlns="http://www.w3.org/2000/svg" xmlns:xlink="http://www.w3.org/1999/xlink" version="1.1"><rect x="0" y="0" width="900" height="675" fill="#001220"></rect><defs><linearGradient id="grad1_0" x1="25%" y1="0%" x2="100%" y2="100%"><stop offset="23.333333333333336%" stop-color="#001220" stop-opacity="1"></stop><stop offset="76.66666666666666%" stop-color="#001220" stop-opacity="1"></stop></linearGradient></defs><defs><linearGradient id="grad2_0" x1="0%" y1="0%" x2="75%" y2="100%"><stop offset="23.333333333333336%" stop-color="#001220" stop-opacity="1"></stop><stop offset="76.66666666666666%" stop-color="#001220" stop-opacity="1"></stop></linearGradient></defs><g transform="translate(900, 0)"><path d="M0 506.3C-45.5 450.5 -91 394.8 -156.9 378.8C-222.8 362.8 -309.3 386.4 -358 358C-406.7 329.5 -417.6 249 -436.1 180.6C-454.5 112.3 -480.4 56.1 -506.2 0L0 0Z" fill="#FBAE3C"></path></g><g transform="translate(0, 675)"><path d="M0 -506.2C67.8 -500.5 135.6 -494.8 193.7 -467.7C251.8 -440.7 300.2 -392.3 342.9 -342.9C385.7 -293.6 422.7 -243.3 449 -186C475.3 -128.7 490.8 -64.3 506.3 0L0 0Z" fill="#FBAE3C"></path></g></svg>